<svg width="202" height="212" viewBox="0 0 202 212" fill="none" xmlns="http://www.w3.org/2000/svg">
<g clip-path="url(#clip0_501_811)">
<path d="M147.118 41.1455C147.118 41.1455 151.327 82.1052 102.836 107.879C102.836 107.879 140.739 128.136 144.15 174.642L52.1128 174.262C52.1128 174.262 49.0271 137.55 95.2327 107.665C95.2327 107.665 57.7404 94.6962 56.2885 40.7193L147.118 41.1455Z" fill="#F2EBEB"/>
<path d="M150.778 34.8354C150.778 34.8354 52.7939 34.865 52.6173 36.7435C52.4407 38.622 50.5215 41.7102 52.5347 42.3785C54.548 43.0469 145.6 42.3549 149.131 41.1431C152.663 39.9313 150.778 34.8354 150.778 34.8354Z" fill="#6A40BF"/>
<path d="M96.3011 104.443C82.7861 96.9019 70.9648 84.7073 70.9648 84.7073C82.4142 85.23 98.9537 79.1725 112.227 71.509C120.047 67.0274 129.438 66.1216 138.028 68.9733C130.052 92.7748 100.595 105.198 100.595 105.198C100.595 105.198 98.4057 106.632 100.065 110.387C101.724 114.141 103.068 115.929 102.174 116.6C101.281 117.272 98.7733 114.726 97.1589 111.061C96.2172 108.96 95.8566 106.68 96.3011 104.443Z" fill="#6A40BF"/>
<path d="M148.661 170.702C148.661 170.702 50.6768 170.731 50.5002 172.61C50.3236 174.488 48.4492 177.666 50.507 178.2C52.5648 178.734 143.572 178.176 147.104 176.964C150.635 175.753 148.661 170.702 148.661 170.702Z" fill="#6A40BF"/>
<path d="M107.639 120.798C107.639 120.798 123.842 132.808 131.556 150.195C139.269 167.582 139.049 170.713 137.707 170.715C136.366 170.716 110.028 173.521 109.444 171.018C108.859 168.514 119.538 160.362 117.513 149.855C115.487 139.347 98.7361 118.438 107.639 120.798Z" fill="#6A40BF"/>
<path d="M132.895 149.076C130.879 145.947 128.952 142.775 126.891 139.781C125.905 138.261 124.83 136.787 123.844 135.268L122.276 133.033L120.619 130.844C120.126 130.084 119.455 129.414 118.962 128.655C118.469 127.895 117.797 127.225 117.215 126.51C116.633 125.795 116.05 125.081 115.379 124.411C114.797 123.696 114.17 123.115 113.498 122.445C110.946 119.81 108.126 117.532 105.082 115.479C108.572 116.861 111.794 118.825 114.525 121.371C117.346 123.872 119.854 126.641 122.093 129.545C124.378 132.539 126.394 135.667 128.231 138.885C130.114 142.192 131.594 145.589 132.895 149.076Z" fill="#F2EBEB"/>
<path d="M130.166 76.7196C129.631 78.5539 128.873 80.1648 127.757 81.7314C126.73 83.2531 125.569 84.7303 124.319 86.0288C123.068 87.3272 121.683 88.5811 120.253 89.7456C118.824 90.9101 117.304 91.8958 115.606 92.7476C116.142 92.0314 116.767 91.2704 117.348 90.6436C117.928 90.0168 118.553 89.2557 119.134 88.6289L122.752 84.689L126.369 80.7492C127.709 79.4059 128.96 78.1075 130.166 76.7196Z" fill="#F2EBEB"/>
<path d="M136.23 170.672C129.612 171.082 122.993 171.493 116.375 171.68C109.756 171.867 103.138 172.054 96.4744 172.151C89.811 172.249 83.1922 172.212 76.5734 172.176C73.3087 172.135 69.9546 172.139 66.6451 172.009L56.6719 171.752C63.2899 171.118 69.953 170.797 76.5267 170.521C83.1004 170.245 89.7638 170.147 96.4271 170.049C103.09 169.952 109.709 169.989 116.328 170.025C122.947 170.062 129.611 170.412 136.23 170.672Z" fill="#000001"/>
<path d="M147.117 41.1455C139.649 41.6466 132.137 42.0582 124.669 42.3356C117.2 42.613 109.688 42.801 102.264 42.9442C94.8404 43.0874 87.2826 43.186 79.8587 43.1056C72.4349 43.0252 64.7874 42.945 57.3633 42.641C64.8311 42.14 72.3438 41.7284 79.812 41.451C87.2801 41.1735 94.7931 40.9855 102.217 40.8423C109.64 40.6992 117.243 40.6899 124.667 40.7703C132.091 40.8508 139.604 40.8863 147.117 41.1455Z" fill="#000001"/>
<path d="M136.363 22.8228C138.822 21.7018 141.504 21.2513 144.099 21.7401C146.783 22.1841 149.378 23.1201 151.616 24.6826C153.809 26.1557 155.689 28.1212 157.212 30.266C157.974 31.3383 158.557 32.5004 159.229 33.6176C159.901 34.7348 160.305 35.9865 160.709 37.2382C159.858 36.2107 159.142 35.2277 158.38 34.1553L155.917 31.2514C155.469 30.8047 155.021 30.3581 154.573 29.9114L153.902 29.2414L153.141 28.6162L151.708 27.321L150.186 26.2943C148.172 24.9551 145.935 23.8398 143.609 23.2165C141.372 22.5484 138.867 22.462 136.363 22.8228Z" fill="#6A40BF"/>
<path d="M156.98 23.558C158.546 24.0034 160.112 24.6723 161.41 25.6993C162.798 26.6815 163.917 27.7981 164.948 29.1833C165.933 30.479 166.785 31.9537 167.323 33.4736C167.862 34.9935 168.221 36.603 168.268 38.2577C167.417 36.7829 166.744 35.4421 165.982 34.1461C165.221 32.8501 164.369 31.5989 163.429 30.3926C161.413 27.9354 159.264 25.6572 156.98 23.558Z" fill="#6A40BF"/>
<path d="M31.7863 154.252C32.4609 157.382 33.1801 160.377 34.1229 163.372C35.0208 166.278 36.1424 169.184 37.5321 171.955C38.877 174.636 40.6243 177.228 42.6395 179.462C43.6695 180.623 44.8334 181.606 46.042 182.454C47.3847 183.347 48.6826 184.15 50.1144 184.774C48.5489 184.553 46.9383 184.018 45.5064 183.394C44.0298 182.68 42.687 181.787 41.4783 180.715C39.1501 178.527 37.1344 175.846 35.6998 172.985C34.2652 170.125 33.1882 167.085 32.603 163.911C31.9729 160.647 31.7007 157.427 31.7863 154.252Z" fill="#6A40BF"/>
<path d="M37.2342 185.863C39.204 187.56 41.3523 188.944 43.7685 189.97C44.9319 190.505 46.1399 190.906 47.3478 191.307C48.0189 191.53 48.6452 191.663 49.2715 191.797C49.8977 191.93 50.524 192.063 51.2399 192.376C50.5694 192.6 49.9434 192.69 49.228 192.825C48.5126 192.96 47.8418 192.961 47.1261 192.873C45.7397 192.785 44.3529 192.473 43.0553 191.894C41.7577 191.314 40.5492 190.466 39.5194 189.528C38.4894 188.366 37.683 187.204 37.2342 185.863Z" fill="#6A40BF"/>
</g>
<defs>
<clipPath id="clip0_501_811">
<rect width="202" height="212" fill="white"/>
</clipPath>
</defs>
</svg>
