<svg width="161" height="176" viewBox="0 0 161 176" fill="none" xmlns="http://www.w3.org/2000/svg">
<path d="M118.356 36.0794C118.356 36.0794 121.543 68.8652 82.6364 89.2702C82.6364 89.2702 112.87 105.643 115.393 142.862L41.7665 142.152C41.7665 142.152 39.4598 112.769 76.5551 89.0652C76.5551 89.0652 46.6192 78.5252 45.6953 35.338L118.356 36.0794Z" fill="#F2EBEB"/>
<path d="M121.31 31.0475C121.31 31.0475 42.9234 30.6393 42.7738 32.1413C42.6243 33.6433 41.0753 36.1053 42.6829 36.6489C44.2906 37.1925 117.134 37.0402 119.965 36.0864C122.795 35.1325 121.31 31.0475 121.31 31.0475Z" fill="#3178C6"/>
<path d="M77.4278 86.4921C66.6492 80.3994 57.2461 70.5918 57.2461 70.5918C66.4031 71.0605 79.6612 66.2874 90.3132 60.2152C96.5895 56.6645 104.106 55.9812 110.965 58.3004C104.479 77.3061 80.8598 87.115 80.8598 87.115C80.8598 87.115 79.1018 88.2524 80.4126 91.2633C81.7235 94.2742 82.7906 95.7099 82.0728 96.2435C81.3549 96.7771 79.3602 94.7292 78.0848 91.79C77.3408 90.1052 77.0624 88.2794 77.4278 86.4921Z" fill="#3178C6"/>
<path d="M119.022 139.729C119.022 139.729 40.6358 139.321 40.4863 140.823C40.3367 142.325 38.8232 144.859 40.4671 145.295C42.111 145.731 114.918 145.687 117.748 144.733C120.579 143.779 119.022 139.729 119.022 139.729Z" fill="#3178C6"/>
<path d="M86.4226 99.626C86.4226 99.626 99.3324 109.306 105.426 123.249C111.52 137.193 111.33 139.696 110.257 139.692C109.184 139.687 88.1018 141.815 87.6453 139.809C87.1888 137.804 95.7674 131.329 94.1936 122.915C92.6198 114.5 79.3111 97.6992 86.4226 99.626Z" fill="#3178C6"/>
<path d="M106.5 122.359C104.901 119.848 103.374 117.301 101.738 114.897C100.956 113.677 100.103 112.493 99.3208 111.273L98.0763 109.479L96.7601 107.72C96.3692 107.11 95.8348 106.571 95.4439 105.961C95.053 105.351 94.5186 104.812 94.056 104.238C93.5934 103.663 93.1307 103.089 92.5964 102.55C92.1337 101.976 91.6348 101.508 91.1005 100.969C89.0703 98.8498 86.8242 97.0156 84.3984 95.3594C87.1843 96.4804 89.7534 98.0657 91.927 100.114C94.1724 102.128 96.1664 104.354 97.9452 106.687C99.7595 109.092 101.359 111.604 102.815 114.186C104.306 116.84 105.475 119.564 106.5 122.359Z" fill="#F2EBEB"/>
<path d="M104.641 64.4641C104.205 65.9291 103.592 67.2144 102.692 68.4628C101.864 69.6757 100.929 70.8523 99.9224 71.8855C98.9162 72.9187 97.8028 73.9157 96.6539 74.841C95.5051 75.7663 94.2853 76.5481 92.9229 77.2221C93.3546 76.6515 93.8581 76.0454 94.3254 75.5465C94.7926 75.0477 95.2961 74.4416 95.7634 73.9427L98.6748 70.8068L101.586 67.6709C102.664 66.6022 103.67 65.569 104.641 64.4641Z" fill="#F2EBEB"/>
<path d="M109.076 139.651C103.78 139.95 98.4835 140.25 93.188 140.37C87.8924 140.49 82.5966 140.611 77.2656 140.66C71.9345 140.708 66.6397 140.65 61.3449 140.591C58.7334 140.544 56.0501 140.533 53.4031 140.414L45.4258 140.165C50.7229 139.687 56.0547 139.459 61.3148 139.267C66.5749 139.075 71.906 139.027 77.237 138.978C82.5683 138.929 87.8631 138.988 93.1579 139.046C98.4527 139.105 103.782 139.414 109.076 139.651Z" fill="#000001"/>
<path d="M118.356 36.0792C112.379 36.4471 106.367 36.7432 100.392 36.9322C94.416 37.1212 88.4049 37.2385 82.4655 37.3204C76.5261 37.4022 70.4795 37.4478 64.5409 37.3507C58.6023 37.2537 52.4847 37.1558 46.5469 36.8799C52.5233 36.512 58.5352 36.2158 64.5108 36.0268C70.4864 35.8378 76.4976 35.7205 82.437 35.6387C88.3764 35.5569 94.4584 35.583 100.397 35.6801C106.336 35.7771 112.346 35.8387 118.356 36.0792Z" fill="#000001"/>
<path d="M109.832 21.375C111.804 20.489 113.952 20.1405 116.025 20.5429C118.17 20.9099 120.242 21.6702 122.025 22.93C123.773 24.1182 125.269 25.6988 126.478 27.4213C127.083 28.2826 127.544 29.2148 128.077 30.1115C128.61 31.0082 128.927 32.0114 129.245 33.0145C128.569 32.1887 128 31.3991 127.395 30.5379L125.437 28.204C125.081 27.8446 124.725 27.4853 124.369 27.126L123.834 26.5871L123.228 26.0836L122.088 25.0412L120.875 24.2131C119.27 23.1329 117.485 22.2307 115.626 21.7219C113.84 21.1776 111.837 21.0974 109.832 21.375Z" fill="#3178C6"/>
<path d="M126.32 22.0537C127.571 22.4169 128.821 22.9589 129.855 23.7862C130.961 24.5781 131.851 25.4763 132.669 26.5889C133.452 27.6298 134.127 28.8134 134.551 30.0316C134.975 31.2499 135.255 32.5391 135.286 33.863C134.611 32.6794 134.079 31.6038 133.475 30.5637C132.871 29.5236 132.196 28.5189 131.449 27.5497C129.847 25.575 128.138 23.7431 126.32 22.0537Z" fill="#3178C6"/>
<path d="M25.5918 126.056C26.1177 128.563 26.6798 130.962 27.4208 133.362C28.1264 135.691 29.0108 138.02 30.1104 140.243C31.1744 142.394 32.5608 144.475 34.1631 146.271C34.982 147.205 35.9088 147.996 36.8718 148.68C37.9421 149.4 38.9768 150.049 40.1195 150.554C38.8681 150.37 37.582 149.935 36.4393 149.429C35.2611 148.852 34.1909 148.132 33.2286 147.269C31.3757 145.508 29.775 143.354 28.64 141.06C27.505 138.765 26.6568 136.329 26.2026 133.786C25.7129 131.173 25.5093 128.596 25.5918 126.056Z" fill="#3178C6"/>
<path d="M29.8102 151.368C31.3785 152.734 33.091 153.85 35.0194 154.682C35.9478 155.115 36.9124 155.441 37.877 155.767C38.4129 155.948 38.9133 156.058 39.4137 156.167C39.9141 156.277 40.4145 156.386 40.9859 156.639C40.4484 156.816 39.9473 156.885 39.3744 156.99C38.8015 157.095 38.2648 157.093 37.6927 157.019C36.5839 156.942 35.4759 156.687 34.4404 156.218C33.4049 155.748 32.4418 155.064 31.6222 154.309C30.8033 153.375 30.1633 152.443 29.8102 151.368Z" fill="#3178C6"/>
</svg>
