<svg width="886" height="400" viewBox="0 0 886 400" fill="none" xmlns="http://www.w3.org/2000/svg">
<path d="M230.402 203.84L268.242 208.16C268.242 208.16 331.442 288.48 327.442 312.56C323.442 336.64 234.162 326.08 234.162 326.08L215.602 266.08L230.402 203.84Z" fill="#3178C6"/>
<path d="M180.083 169.36C180.083 169.36 169.283 162.88 154.563 174.16C139.843 185.44 114.883 222.24 114.883 222.24C114.883 222.24 129.683 245.52 144.723 242C144.723 242 191.523 188.24 180.083 169.36Z" fill="#662916"/>
<path d="M180.082 169.36C176.562 169.92 173.042 170.8 169.682 172C166.322 173.12 163.122 174.64 160.162 176.64C158.722 177.6 157.522 178.88 156.482 180.24C156.242 180.56 156.002 180.96 155.762 181.28L155.442 181.84L155.202 182.4C154.882 183.2 154.642 184 154.482 184.88C153.682 188.4 152.642 191.92 151.442 195.36C150.802 197.12 149.922 198.8 148.962 200.32C147.922 201.84 146.642 203.28 145.122 204.4C143.602 205.52 142.002 206.4 140.242 207.12C139.362 207.44 138.482 207.76 137.682 208C136.882 208.24 136.002 208.56 135.202 208.96C132.002 210.4 129.042 212.48 126.562 214.96C125.282 216.24 124.162 217.6 123.202 219.12C122.722 219.84 122.322 220.64 122.082 221.52C121.922 221.92 121.842 222.4 121.842 222.8C121.842 223.28 122.082 223.68 122.482 223.84C122.002 223.68 121.762 223.28 121.762 222.8C121.762 222.32 121.762 221.84 121.842 221.44C122.082 220.56 122.402 219.68 122.882 218.88C123.762 217.28 124.802 215.76 126.002 214.4C128.402 211.68 131.362 209.36 134.722 207.76C135.522 207.36 136.402 206.96 137.282 206.64C138.162 206.32 138.962 206 139.762 205.68C141.362 204.96 142.882 204.08 144.242 203.04C145.602 202 146.722 200.72 147.682 199.28C148.642 197.84 149.362 196.24 150.002 194.64C151.202 191.28 152.242 187.84 153.042 184.4C153.282 183.52 153.522 182.56 153.922 181.76L154.242 181.12L154.562 180.48C154.802 180.08 155.042 179.68 155.362 179.28C156.482 177.76 157.922 176.48 159.442 175.52C162.482 173.52 165.922 172.08 169.442 171.12C172.962 170.24 176.482 169.6 180.082 169.36Z" fill="#F2EBEB"/>
<path d="M168.802 188.48C167.522 189.52 166.482 190.72 165.522 192.16C164.642 193.52 163.842 194.96 163.202 196.48C162.882 197.2 162.562 198 162.322 198.72C162.082 199.44 161.762 200.24 161.602 201.04L161.282 202.24C161.202 202.64 161.042 203.04 160.882 203.44C160.562 204.24 160.242 205.04 159.842 205.76C158.242 208.72 156.242 211.44 153.922 213.84C151.602 216.24 149.042 218.4 146.242 220.24C145.522 220.72 144.802 221.12 144.002 221.52C143.202 221.92 142.402 222.24 141.522 222.48C140.962 222.64 140.482 222.64 139.922 222.48C139.602 222.4 139.282 222.16 139.042 221.92C138.802 221.68 138.722 221.36 138.642 221.04C138.562 220.56 138.562 220 138.722 219.52C138.802 219.04 138.962 218.64 139.122 218.24C139.442 217.28 140.162 216.56 140.962 216C141.842 215.44 142.962 215.36 143.922 215.76C144.882 216.16 145.602 216.88 146.002 217.84C146.322 218.72 146.482 219.68 146.322 220.64C146.002 222.32 145.202 223.92 144.002 225.28C142.962 226.64 141.842 227.84 140.482 228.88C139.202 229.92 137.762 230.88 136.322 231.6C134.882 232.32 133.282 232.88 131.602 233.2C134.722 232.24 137.602 230.56 139.922 228.32C141.122 227.2 142.162 226 143.042 224.72C144.002 223.52 144.642 222.08 144.962 220.56C145.042 219.84 144.962 219.12 144.722 218.48C144.482 217.92 144.002 217.44 143.362 217.2C142.802 216.96 142.162 217.04 141.602 217.36C141.042 217.76 140.642 218.24 140.402 218.88C140.322 219.04 140.242 219.2 140.242 219.36C140.162 219.52 140.162 219.68 140.082 219.92C140.002 220.24 140.002 220.56 140.002 220.88C140.082 221.12 140.082 221.12 140.242 221.2C140.482 221.28 140.802 221.28 141.042 221.2C142.562 220.8 143.922 220.08 145.202 219.2C147.922 217.44 150.402 215.36 152.642 213.04C154.962 210.8 156.962 208.24 158.562 205.44C158.962 204.72 159.282 204 159.602 203.28C159.762 202.88 159.842 202.56 160.002 202.16L160.402 200.96C160.962 199.36 161.602 197.84 162.322 196.32C163.042 194.8 163.922 193.44 164.962 192.08C166.162 190.64 167.442 189.44 168.802 188.48Z" fill="#F2EBEB"/>
<path d="M174.961 168.88C169.361 170.16 163.921 171.92 158.641 174.16C158.001 174.4 157.361 174.72 156.721 175.04L154.801 175.92L152.801 176.8C152.161 177.12 151.521 177.44 150.961 177.84C149.761 178.56 148.481 179.2 147.281 180.08L145.521 181.28L143.841 182.56C141.601 184.24 139.521 186.24 137.681 188.32C136.721 189.36 135.761 190.48 134.801 191.6L133.281 193.2C132.801 193.76 132.241 194.16 131.681 194.72C129.521 196.72 127.041 198.4 124.401 199.52C123.041 200.08 121.601 200.4 120.321 200.96C119.041 201.68 118.001 202.64 117.281 203.84C117.921 202.48 118.881 201.36 120.081 200.56C121.361 199.84 122.801 199.44 124.001 198.8C125.281 198.16 126.481 197.44 127.601 196.56L128.401 195.92C128.641 195.68 128.961 195.44 129.201 195.2C129.761 194.72 130.241 194.24 130.721 193.76C131.761 192.8 132.641 191.68 133.681 190.64C134.721 189.6 135.521 188.48 136.481 187.36C138.401 185.12 140.481 183.12 142.801 181.28C147.441 177.76 152.641 174.96 158.081 172.96C163.521 170.88 169.201 169.52 174.961 168.88Z" fill="#662916"/>
<path d="M149.922 241.6C152.482 240.4 154.882 238.88 156.962 236.96C159.042 235.12 160.562 232.8 161.362 230.16C161.442 229.84 161.522 229.52 161.602 229.2L161.682 228.16C161.762 227.52 161.762 226.72 161.842 226C162.002 224.56 162.322 223.12 162.722 221.68C163.602 218.88 164.962 216.24 166.722 213.84C167.602 212.64 168.562 211.6 169.522 210.48C170.482 209.36 171.522 208.4 172.242 207.28C173.842 204.96 175.282 202.56 176.482 200C177.762 197.44 178.722 194.8 179.442 192.08C179.842 190.72 180.002 189.36 179.922 187.92C179.842 187.2 179.602 186.56 179.202 186C178.802 185.44 178.162 185.04 177.442 184.88C178.162 184.96 178.882 185.28 179.362 185.84C179.842 186.4 180.162 187.12 180.242 187.84C180.482 189.28 180.402 190.8 180.162 192.16C179.602 194.96 178.722 197.76 177.522 200.4C176.402 203.04 175.042 205.6 173.362 208C172.482 209.28 171.442 210.24 170.562 211.28C169.682 212.32 168.722 213.44 167.922 214.56C166.242 216.72 164.962 219.2 164.082 221.84C163.682 223.12 163.362 224.48 163.202 225.84C163.122 226.56 163.122 227.2 162.962 227.92L162.802 229.04C162.722 229.44 162.642 229.76 162.482 230.16C162.082 231.6 161.362 232.96 160.402 234.08C159.522 235.2 158.482 236.32 157.362 237.2C155.282 239.28 152.722 240.64 149.922 241.6Z" fill="#3178C6"/>
<path d="M181.762 164.16C182.802 165.84 183.682 167.68 184.322 169.6C184.962 171.52 185.442 173.44 185.682 175.52C185.922 177.52 185.922 179.6 185.522 181.68C185.202 183.68 184.322 185.6 183.042 187.2C183.762 185.36 184.162 183.52 184.322 181.52C184.322 181.04 184.322 180.56 184.402 180.08C184.482 179.6 184.402 179.12 184.402 178.64C184.402 178.16 184.322 177.68 184.322 177.2C184.322 176.72 184.242 176.24 184.162 175.76C183.922 173.84 183.602 171.92 183.202 170C182.722 168 182.322 166.08 181.762 164.16Z" fill="#3178C6"/>
<path d="M140.559 265.76C159.039 200.64 194.799 184.08 230.399 203.84L228.959 281.28L264.719 291.68C264.719 291.68 302.479 301.92 312.879 311.36C312.879 311.36 297.999 319.6 278.399 339.76C258.799 359.92 242.079 386.08 193.199 384.08C144.319 382.08 125.839 317.52 140.559 265.76Z" fill="#3178C6"/>
<path d="M268.323 208.08C268.323 208.08 290.803 183.12 312.963 200.72C335.123 218.32 382.803 292.88 371.043 335.92C359.283 378.96 305.203 381.36 260.723 358.32C260.723 358.32 291.123 316 312.963 311.2L268.323 208.08Z" fill="#3178C6"/>
<path d="M201.522 324.4C194.082 322.64 178.642 319.2 175.762 322.8C172.882 326.4 168.642 338.48 164.722 332.08C160.802 325.68 164.722 318.56 164.722 318.56C164.722 318.56 161.522 331.04 157.202 327.44C152.882 323.84 153.682 312.16 153.682 312.16C153.682 312.16 152.962 321.76 149.362 321.04C145.762 320.32 142.242 309.28 149.362 297.52C149.362 297.52 135.122 303.2 137.282 298.56C139.442 293.92 157.922 282.16 168.322 278.96C168.322 278.96 185.602 272.08 241.042 298.56C241.042 298.56 227.362 304.4 216.802 312.8C204.882 322.4 201.522 324.4 201.522 324.4Z" fill="#5EAE51"/>
<path d="M162.96 289.36C160.4 290.72 158 292.16 155.6 293.68C154.4 294.48 153.28 295.28 152.24 296.16C151.2 296.96 150.24 297.92 149.36 298.96C147.84 301.12 147.2 303.92 146.64 306.64C146.16 309.44 145.92 312.24 145.76 315.12C145.28 312.24 145.12 309.36 145.44 306.48C145.6 305.04 145.84 303.6 146.24 302.16C146.64 300.72 147.28 299.28 148.08 298.08C149.04 296.88 150.08 295.84 151.36 294.96C152.56 294.08 153.76 293.28 155.04 292.64C157.52 291.2 160.16 290.08 162.96 289.36Z" fill="#000001"/>
<path d="M168.32 299.68C165.92 301.28 163.6 302.8 161.36 304.56C160.24 305.44 159.12 306.24 158.16 307.2C157.12 308.08 156.24 309.12 155.44 310.24C155.04 310.72 154.8 311.36 154.56 311.92C154.56 312.08 154.48 312.24 154.48 312.32L154.4 312.8C154.32 313.12 154.32 313.44 154.24 313.76C154.08 315.12 154.08 316.48 154.16 317.84C154.24 319.2 154.48 320.64 154.72 322C154.96 323.36 155.44 324.72 156.08 326C155.12 324.88 154.48 323.6 154 322.24C153.52 320.88 153.12 319.44 152.88 318C152.64 316.56 152.56 315.04 152.72 313.6C152.72 313.2 152.8 312.88 152.88 312.48L152.96 311.92C153.04 311.76 153.04 311.52 153.12 311.36C153.36 310.64 153.68 309.92 154.16 309.28C155.92 306.96 158.16 304.96 160.72 303.44C163.04 301.92 165.6 300.64 168.32 299.68Z" fill="#000001"/>
<path d="M176.001 308.72C173.841 309.6 171.761 310.72 169.841 312C168.001 313.28 166.321 314.96 165.761 316.96C165.201 319.2 164.721 321.52 164.481 323.84C164.321 325.04 164.241 326.16 164.161 327.36C164.081 327.92 164.081 328.56 164.081 329.12C164.081 329.68 164.081 330.32 164.241 330.88C163.921 330.32 163.761 329.76 163.681 329.2C163.601 328.56 163.521 328 163.441 327.44C163.361 326.24 163.281 325.04 163.361 323.84C163.441 321.44 163.761 318.96 164.321 316.64C164.721 315.36 165.361 314.24 166.321 313.28C167.201 312.4 168.161 311.6 169.281 311.04C171.281 309.76 173.601 309.04 176.001 308.72Z" fill="#000001"/>
<path d="M260.723 358.4C264.083 353.44 267.683 348.72 271.443 344.08C273.363 341.76 275.283 339.52 277.283 337.28C279.283 335.04 281.283 332.88 283.363 330.72C285.443 328.56 287.603 326.56 289.843 324.48C292.083 322.4 294.403 320.56 296.803 318.8C299.203 316.96 301.763 315.36 304.403 314C307.043 312.56 309.923 311.68 312.963 311.36C310.083 312 307.283 313.12 304.803 314.72C302.323 316.24 299.843 318 297.603 319.84C293.043 323.6 288.643 327.6 284.563 331.92C280.403 336.16 276.403 340.56 272.483 344.96C268.563 349.36 264.563 353.84 260.723 358.4Z" fill="#000001"/>
<path d="M264.801 291.68C264.801 291.68 303.921 282.24 323.521 306.16C323.521 306.16 315.281 311.92 309.441 308.72C303.601 305.52 264.801 291.68 264.801 291.68Z" fill="#5EAE51"/>
<path d="M190.164 334.88C195.124 329.52 200.484 324.48 206.084 319.84C211.764 315.2 217.684 310.88 223.844 306.96C226.964 305.04 230.164 303.2 233.364 301.52C236.564 299.84 239.924 298.32 243.364 296.96C246.804 295.6 250.244 294.48 253.844 293.52C257.444 292.64 261.044 292 264.724 291.68C261.124 292.32 257.604 293.2 254.164 294.24C250.724 295.36 247.284 296.64 243.924 298.08C237.284 301.04 230.884 304.4 224.724 308.32C221.604 310.24 218.644 312.24 215.604 314.32C212.564 316.4 209.684 318.56 206.804 320.8C201.204 325.28 195.524 329.92 190.164 334.88Z" fill="#000001"/>
<path d="M247.44 89.2798C214.32 81.9998 178.8 126.64 186.08 162.16C193.36 197.68 222.64 195.6 243.52 190.8C264.4 186 285.2 114.16 285.2 114.16C285.2 114.16 296.64 110.08 290.48 99.8398C284.32 89.5998 273.28 93.3598 273.28 93.3598C273.28 93.3598 277.52 84.9598 269.36 81.9998C252.64 75.7598 247.44 89.2798 247.44 89.2798Z" fill="#662916"/>
<path d="M250.162 143.44C250.162 143.44 250.162 124.56 238.562 133.92C226.962 143.28 247.282 155.2 246.242 158.4C244.002 165.04 229.122 201.44 229.362 211.28C229.362 212.4 251.602 235.44 265.762 236C269.602 236.16 270.082 229.36 268.322 208.16C267.522 198.24 271.362 200.32 286.082 190.88C306.642 177.6 300.002 154.4 300.002 154.4C300.002 154.4 321.762 145.28 321.682 141.68C321.602 138.08 303.122 125.52 294.242 117.52C285.362 109.52 269.042 101.04 269.042 101.04C269.042 101.04 270.722 110.88 264.002 114.24C264.002 114.24 265.282 125.12 258.082 126.48C258.082 126.48 259.842 136.96 253.282 136.32C253.282 136.24 253.682 143.12 250.162 143.44Z" fill="#5EAE51"/>
<path d="M269.201 161.84C269.201 161.84 271.681 158.72 274.881 160.56C278.081 162.4 272.881 170.56 267.681 169.28C262.481 168 269.201 161.84 269.201 161.84Z" fill="#CE5252"/>
<path d="M268.48 157.12C268.64 158.4 268.96 159.6 269.52 160.8C270 161.92 270.64 162.88 271.52 163.76C272.4 164.56 273.44 165.28 274.56 165.76C274.8 165.92 275.12 166 275.44 166.16L276.32 166.48C276.96 166.64 277.52 166.88 278.24 167.12C277.6 167.2 276.88 167.28 276.24 167.28C275.52 167.2 274.88 167.12 274.24 166.96C272.88 166.64 271.6 165.92 270.56 164.96C269.52 163.92 268.8 162.64 268.48 161.28C267.92 159.92 268 158.48 268.48 157.12Z" fill="#000001"/>
<path d="M269.039 125.6C269.599 124.32 270.559 123.2 271.759 122.4C272.959 121.6 274.319 121.04 275.679 120.8C277.119 120.56 278.639 120.72 279.999 121.2C281.359 121.68 282.559 122.64 283.279 123.84C281.839 123.76 280.639 123.6 279.439 123.68C278.319 123.68 277.199 123.76 276.159 124C275.039 124.16 273.919 124.4 272.799 124.72C271.679 125.04 270.479 125.28 269.039 125.6Z" fill="#662916"/>
<path d="M270.641 132.24C270.641 132.24 285.681 128.08 288.241 140.16C288.321 140.16 272.721 144.24 270.641 132.24Z" fill="#F2EBEB"/>
<path d="M270 132.16C271.76 131.44 273.68 130.96 275.6 130.88C277.52 130.72 279.52 130.96 281.44 131.52C283.36 132.08 285.12 133.2 286.4 134.8C287.68 136.32 288.32 138.24 288.32 140.24C287.76 138.48 286.8 136.88 285.52 135.6C284.88 134.96 284.16 134.48 283.44 134.08C282.72 133.68 281.84 133.28 281.04 133.04C280.16 132.8 279.28 132.56 278.4 132.4C277.52 132.24 276.56 132.16 275.68 132.08C273.76 132 271.84 132 270 132.16Z" fill="#000001"/>
<path d="M273.601 142.8C273.441 142.48 273.281 142.08 273.361 141.76C273.361 141.44 273.441 141.12 273.601 140.88C273.761 140.56 274.081 140.32 274.321 140.16C274.641 140 275.041 139.92 275.441 140.08C275.361 140.48 275.281 140.8 275.201 141.04C275.121 141.28 275.041 141.52 274.881 141.68C274.721 141.92 274.561 142.08 274.401 142.24C274.161 142.48 273.921 142.64 273.601 142.8Z" fill="#000001"/>
<path d="M269.761 141.28C269.601 140.96 269.441 140.56 269.521 140.24C269.521 139.92 269.681 139.6 269.841 139.36C270.001 139.04 270.241 138.8 270.561 138.64C270.881 138.48 271.281 138.4 271.681 138.56C271.601 138.96 271.521 139.28 271.441 139.52C271.361 139.76 271.281 140 271.121 140.16C270.961 140.4 270.801 140.56 270.641 140.72C270.401 140.96 270.081 141.2 269.761 141.28Z" fill="#000001"/>
<path d="M282.24 132.64C282.24 132.64 284.8 134.88 282.24 138.64C279.68 142.4 274.32 138.64 274.32 138.64C274.32 138.64 270.32 135.92 270.32 132.08C270.32 131.44 278.56 130.72 282.24 132.64Z" fill="#000001"/>
<path d="M265.444 100.96C263.924 105.52 261.684 109.84 258.884 113.76C258.164 114.72 257.284 115.68 256.404 116.48C255.444 117.36 254.404 118.08 253.204 118.56C251.924 119.12 250.564 119.2 249.204 118.88C248.564 118.72 247.924 118.4 247.364 118.08C246.804 117.76 246.244 117.44 245.764 117.12C245.204 116.72 244.724 116.32 244.324 115.84C243.844 115.28 243.444 114.64 243.284 113.92C243.044 113.12 243.284 112.24 243.764 111.6C244.324 110.88 245.124 110.48 246.004 110.56C246.564 110.64 247.044 110.96 247.284 111.52C247.364 111.92 247.444 112.32 247.444 112.72C247.444 113.36 247.364 114 247.284 114.64C247.124 115.84 246.804 117.04 246.324 118.24C245.844 119.44 245.204 120.48 244.404 121.44C243.604 122.4 242.564 123.2 241.364 123.6C240.164 124 238.964 124.24 237.684 124.08C236.484 124 235.284 123.68 234.164 123.28C235.284 123.52 236.484 123.68 237.684 123.68C238.804 123.68 240.004 123.36 241.044 122.88C243.044 121.76 244.484 119.92 245.124 117.76C245.524 116.64 245.764 115.52 245.844 114.4C245.924 113.84 245.924 113.28 245.924 112.72C245.924 112.56 245.924 112.32 245.844 112.16C245.844 112.08 245.844 112.16 245.764 112.16C245.444 112.16 245.124 112.32 244.884 112.64C244.644 112.96 244.564 113.36 244.724 113.68C245.124 114.64 245.764 115.44 246.644 115.92C247.524 116.56 248.484 117.12 249.524 117.44C250.564 117.68 251.604 117.6 252.564 117.2C254.564 116.4 256.244 114.72 257.764 112.96C259.284 111.12 260.644 109.2 261.844 107.2C263.204 105.2 264.324 103.04 265.444 100.96Z" fill="#F2EBEB"/>
<path d="M200.48 128.88C203.36 127.6 206.08 126 208.64 124.16C211.12 122.32 213.36 120.16 215.28 117.68C215.76 117.04 216.08 116.4 216.56 115.76C217.04 115.12 217.28 114.4 217.6 113.76C217.92 113.12 218.16 112.32 218.4 111.6C218.64 110.88 218.8 110.08 218.96 109.36C219.12 108.64 219.2 107.92 219.2 107.2C219.2 106.88 219.2 106.56 219.12 106.24C219.04 106 218.96 105.84 218.88 105.84C218.72 105.84 218.48 105.84 218.4 105.92C218.16 106.08 217.92 106.24 217.68 106.48C217.2 106.88 216.96 107.44 216.8 108.08C216.8 108.32 216.8 108.48 216.96 108.64L217.04 108.72L217.2 108.88C217.36 108.96 217.44 109.12 217.6 109.2C218.16 109.6 218.8 109.92 219.44 110.08C220.8 110.48 222.16 110.24 223.36 109.44C224.56 108.64 225.6 107.52 226.32 106.24C226.72 105.6 227.12 104.96 227.44 104.24C227.76 103.52 228.08 102.8 228.4 102.08C229.6 99.0399 231.6 96.3999 234.16 94.3999C235.44 93.4399 236.8 92.6399 238.32 91.9999C239.76 91.3599 241.36 91.0399 242.96 90.8799C239.92 91.5199 237.04 92.8799 234.64 94.9599C233.44 95.9999 232.48 97.1199 231.6 98.3999C230.72 99.6799 230.08 101.04 229.52 102.48C229.2 103.2 228.96 104 228.64 104.72C228.32 105.44 227.92 106.16 227.52 106.88C226.72 108.4 225.52 109.68 224.16 110.64C222.64 111.68 220.8 112 219.04 111.52C218.16 111.28 217.36 110.88 216.64 110.4C216.48 110.24 216.32 110.16 216.16 110C216.08 109.92 216 109.84 215.92 109.76C215.84 109.68 215.76 109.52 215.6 109.44C215.28 108.96 215.12 108.32 215.2 107.76C215.36 106.8 215.84 105.92 216.56 105.2C216.88 104.88 217.28 104.64 217.76 104.4C218.32 104.08 218.96 104.08 219.52 104.24C220.08 104.48 220.56 105.04 220.72 105.68C220.8 106.16 220.88 106.64 220.88 107.04C220.88 107.92 220.72 108.72 220.56 109.52C220.4 110.32 220.16 111.12 219.92 111.84C219.68 112.56 219.36 113.36 219.04 114.16C218.72 114.96 218.32 115.6 217.84 116.32C217.36 117.04 216.96 117.68 216.4 118.32C214.4 120.8 211.92 122.96 209.2 124.72C207.84 125.6 206.48 126.32 205.04 127.04C203.44 127.92 202 128.48 200.48 128.88Z" fill="#F2EBEB"/>
<path d="M268.32 99.8398C269.44 100.88 270.32 102.08 270.96 103.52C271.6 104.88 272 106.4 272.16 107.92C272.32 109.52 272 111.04 271.36 112.48C271.2 112.8 271.04 113.2 270.8 113.52L270.08 114.4C269.84 114.72 269.6 114.96 269.28 115.2C268.96 115.44 268.72 115.68 268.4 115.92C269.2 114.72 269.76 113.44 270.16 112.08C270.56 110.8 270.64 109.44 270.56 108C270.4 106.64 270.16 105.2 269.76 103.92C269.36 102.48 268.88 101.12 268.32 99.8398Z" fill="#662916"/>
<path d="M239.122 166.72C238.482 168.8 237.602 170.8 236.562 172.72C235.522 174.64 234.402 176.56 232.402 178C231.842 178.4 231.282 178.64 230.642 178.64C229.922 178.72 229.282 178.56 228.642 178.16C228.402 178 228.162 177.84 227.922 177.6L227.282 177.04L226.082 175.92C224.482 174.48 222.882 173.12 220.962 172.96C220.002 172.88 219.042 173.04 218.162 173.44C217.202 173.84 216.322 174.32 215.442 174.96C214.562 175.52 213.762 176.24 212.962 176.88C212.082 177.68 211.122 178.24 210.082 178.72C209.762 178.8 209.522 178.96 209.202 179.04C208.882 179.12 208.562 179.12 208.242 179.12C207.602 179.12 206.962 178.88 206.402 178.48C205.522 177.68 204.882 176.64 204.642 175.44C204.402 174.4 204.162 173.28 204.162 172.16C204.082 171.04 204.082 170 204.162 168.88C204.242 171.04 204.722 173.12 205.362 175.2C205.682 176.16 206.242 176.96 207.042 177.6C207.842 178.08 208.802 178.08 209.602 177.6C210.482 177.12 211.282 176.56 212.082 175.84C212.882 175.12 213.762 174.4 214.642 173.76C215.522 173.04 216.562 172.48 217.602 172.08C219.842 171.04 222.482 171.28 224.482 172.8C225.442 173.44 226.242 174.16 227.042 174.96L228.242 176.08C228.562 176.4 228.962 176.8 229.362 177.04C230.082 177.52 231.042 177.52 231.682 176.96C232.562 176.4 233.282 175.76 233.922 174.96C234.642 174.16 235.202 173.28 235.842 172.4C237.122 170.56 238.162 168.64 239.122 166.72Z" fill="#F2EBEB"/>
<path d="M231.843 136.24C228.083 136.88 224.402 138.08 220.882 139.6C217.522 141.2 214.402 143.68 214.082 147.36C213.682 149.44 212.722 151.36 211.202 152.8C209.682 154.16 207.923 155.2 205.923 155.76C204.003 156.32 202.003 156.56 200.003 156.48C198.003 156.4 196.083 155.76 194.562 154.56C196.242 155.44 198.162 155.84 200.082 155.76C201.922 155.68 203.843 155.36 205.523 154.64C207.283 154 208.803 153.04 210.163 151.76C211.443 150.48 212.243 148.88 212.563 147.12C212.643 146.72 212.722 146.16 212.882 145.6C212.962 145.36 213.043 145.12 213.123 144.88L213.443 144.16C213.923 143.2 214.563 142.4 215.363 141.68C216.883 140.32 218.562 139.2 220.482 138.48C224.082 137.04 227.923 136.24 231.843 136.24Z" fill="#F2EBEB"/>
<path d="M158.398 53.7599C158.398 53.7599 146.718 84.5599 102.798 85.5999C102.798 85.5999 122.638 113.68 108.398 148.16L42.7188 114.88C42.7188 114.88 53.6787 87.5199 97.4384 82.7199C97.4384 82.7199 75.2788 59.9999 93.5984 20.8799L158.398 53.7599Z" fill="#F2EBEB"/>
<path d="M163.278 50.5597C163.278 50.5597 93.1983 15.4397 92.3983 16.7197C91.5983 17.9997 89.1183 19.5197 90.3183 20.7197C91.5183 21.9197 156.878 54.0797 159.838 54.4797C162.798 54.8797 163.278 50.5597 163.278 50.5597Z" fill="#3178C6"/>
<path d="M99.3603 80.7996C92.4003 70.5596 88.3203 57.5996 88.3203 57.5996C96.3203 62.0796 110.32 63.6796 122.56 62.9596C129.76 62.5596 136.8 65.2796 141.92 70.3996C127.68 84.5596 102.16 82.8796 102.16 82.8796C102.16 82.8796 100.08 83.1196 99.9203 86.3996C99.7603 89.6796 100.08 91.4396 99.2003 91.5996C98.3203 91.7596 97.4403 89.0396 97.6003 85.8396C97.6803 83.9996 98.2403 82.2396 99.3603 80.7996Z" fill="#3178C6"/>
<path d="M113.041 146.96C113.041 146.96 42.9611 111.84 42.1611 113.12C41.3611 114.4 38.8811 116 40.1611 117.12C41.4411 118.24 106.721 150.48 109.681 150.88C112.641 151.28 113.041 146.96 113.041 146.96Z" fill="#3178C6"/>
<path d="M101.6 96.5597C101.6 96.5597 108.88 110.96 108.16 126.16C107.44 141.36 106.16 143.52 105.2 143.04C104.24 142.56 84.3997 135.12 84.8797 133.12C85.3597 131.12 95.9197 129.12 98.2397 120.88C100.56 112.64 96.0797 91.6797 101.6 96.5597Z" fill="#3178C6"/>
<path d="M109.52 125.84C109.2 122.88 108.96 119.92 108.56 117.04C108.4 115.6 108.16 114.16 108 112.72L107.68 110.56L107.28 108.4C107.2 107.68 106.96 106.96 106.88 106.24C106.8 105.52 106.56 104.8 106.4 104.08C106.24 103.36 106.08 102.64 105.84 101.92C105.68 101.2 105.44 100.56 105.2 99.8398C104.32 97.0398 103.12 94.3998 101.68 91.8398C103.68 94.0798 105.28 96.6398 106.32 99.4398C107.44 102.24 108.24 105.12 108.8 108C109.36 110.96 109.68 113.92 109.84 116.88C110 119.92 109.84 122.88 109.52 125.84Z" fill="#F2EBEB"/>
<path d="M133.519 73.1201C132.479 74.2401 131.359 75.1201 129.999 75.8401C128.719 76.5601 127.359 77.2001 125.999 77.6801C124.639 78.1601 123.199 78.5601 121.759 78.8801C120.319 79.2001 118.879 79.3601 117.359 79.3601C117.999 79.0401 118.719 78.7201 119.359 78.4801C119.999 78.2401 120.719 77.9201 121.359 77.6801L125.359 76.1601L129.359 74.6401C130.799 74.1601 132.159 73.6801 133.519 73.1201Z" fill="#F2EBEB"/>
<path d="M104.159 142.48C99.2791 140.4 94.3991 138.32 89.5991 136.08C84.7991 133.84 79.9989 131.6 75.1989 129.28C70.3989 126.96 65.6789 124.56 60.9589 122.16C58.6389 120.96 56.2389 119.76 53.9189 118.48L46.8789 114.72C51.8389 116.64 56.7189 118.8 61.5189 120.96C66.3189 123.12 71.1189 125.44 75.9189 127.76C80.7191 130.08 85.4391 132.48 90.1591 134.88C94.8791 137.28 99.5191 139.92 104.159 142.48Z" fill="#000001"/>
<path d="M158.4 53.7596C152.88 51.4396 147.36 49.0396 141.92 46.5597C136.48 44.0797 131.04 41.5196 125.68 38.9596C120.32 36.3996 114.88 33.7596 109.6 31.0396C104.32 28.3196 98.8797 25.5196 93.6797 22.6396C99.1997 24.9596 104.72 27.3596 110.16 29.8396C115.6 32.3196 121.04 34.8796 126.4 37.4396C131.76 39.9996 137.2 42.7196 142.48 45.4396C147.76 48.1596 153.12 50.8796 158.4 53.7596Z" fill="#000001"/>
<path d="M157.277 36.7998C159.437 36.8798 161.517 37.5198 163.197 38.7998C164.957 40.0798 166.477 41.6798 167.517 43.5998C168.557 45.4398 169.197 47.5198 169.517 49.5998C169.677 50.6398 169.677 51.6798 169.757 52.7198C169.837 53.7598 169.677 54.7998 169.517 55.8398C169.277 54.7998 169.117 53.8398 168.957 52.7998L168.237 49.8398C168.077 49.3598 167.917 48.8798 167.757 48.3998L167.517 47.6798L167.197 46.9598L166.637 45.5198L165.917 44.2398C164.957 42.5598 163.757 40.9598 162.317 39.6798C160.957 38.3998 159.197 37.4398 157.277 36.7998Z" fill="#3178C6"/>
<path d="M171.758 44.7197C172.718 45.5997 173.598 46.6397 174.158 47.8397C174.798 49.0397 175.198 50.2397 175.438 51.5997C175.678 52.8797 175.758 54.2397 175.598 55.5197C175.438 56.7997 175.118 58.0797 174.558 59.2797C174.478 57.9197 174.478 56.7197 174.398 55.5197C174.318 54.3197 174.158 53.1197 173.918 51.9197C173.358 49.4397 172.638 47.0397 171.758 44.7197Z" fill="#3178C6"/>
<path d="M35.3575 93.2803C34.7175 95.7603 34.1575 98.1603 33.7575 100.64C33.3575 103.04 33.1175 105.52 33.1175 108C33.1175 110.4 33.4375 112.88 34.0775 115.2C34.3975 116.4 34.8775 117.52 35.4375 118.56C36.0775 119.68 36.7175 120.72 37.5175 121.68C36.4775 120.96 35.5175 120 34.7175 119.04C33.9175 118 33.2775 116.88 32.7975 115.68C31.9175 113.28 31.4375 110.64 31.4375 108.08C31.4375 105.52 31.7575 102.96 32.4775 100.48C33.1975 97.9203 34.1575 95.5203 35.3575 93.2803Z" fill="#3178C6"/>
<path d="M27.9182 117.84C28.7182 119.76 29.7582 121.52 31.1182 123.12C31.7582 123.92 32.4782 124.64 33.1982 125.36C33.5982 125.76 33.9982 126.08 34.3982 126.4C34.7982 126.72 35.1982 127.04 35.5982 127.52C35.0382 127.44 34.5582 127.28 33.9982 127.12C33.4382 126.96 32.9582 126.72 32.4782 126.4C31.5182 125.84 30.6382 125.12 29.9182 124.24C29.1982 123.36 28.6382 122.32 28.2382 121.28C27.9182 120.08 27.7582 118.96 27.9182 117.84Z" fill="#3178C6"/>
<path d="M422.99 362C417.67 362 413.49 360.417 410.45 357.25C407.537 353.957 406.08 349.46 406.08 343.76V303.48C406.08 298.033 407.537 293.663 410.45 290.37C413.49 286.95 417.67 285.24 422.99 285.24H435.91C441.23 285.24 445.41 286.95 448.45 290.37C451.49 293.663 453.01 298.033 453.01 303.48V343.76C453.01 349.46 451.49 353.957 448.45 357.25C445.41 360.417 441.23 362 435.91 362H422.99ZM443.32 303.48C443.32 297.78 440.85 294.93 435.91 294.93H422.99C418.05 294.93 415.58 297.78 415.58 303.48V343.57C415.58 349.397 418.05 352.31 422.99 352.31H435.91C440.85 352.31 443.32 349.397 443.32 343.57V303.48ZM505.921 362C504.147 362 502.817 361.177 501.931 359.53L490.151 332.55H475.901V357.82C475.901 359.213 475.394 360.29 474.381 361.05C473.494 361.683 472.544 362 471.531 362H470.391C469.504 362 468.554 361.747 467.541 361.24C466.527 360.607 466.021 359.467 466.021 357.82V289.42C466.021 288.027 466.464 287.013 467.351 286.38C468.237 285.62 469.251 285.24 470.391 285.24H493.191C498.511 285.24 502.691 286.887 505.731 290.18C508.771 293.347 510.291 297.78 510.291 303.48V314.12C510.291 322.733 506.807 328.433 499.841 331.22L511.241 356.3C511.621 357.06 511.747 358.2 511.621 359.72C511.494 361.24 510.291 362 508.011 362H505.921ZM500.791 303.48C500.791 297.653 498.257 294.74 493.191 294.74H475.901V322.67H493.191C498.257 322.67 500.791 319.82 500.791 314.12V303.48ZM528.485 362C527.091 362 526.015 361.62 525.255 360.86C524.621 359.973 524.305 358.96 524.305 357.82V289.61C524.305 288.47 524.621 287.457 525.255 286.57C525.888 285.683 526.965 285.24 528.485 285.24H552.045C557.365 285.24 561.545 286.823 564.585 289.99C567.625 293.03 569.145 297.4 569.145 303.1V310.13C569.145 315.703 567.498 319.947 564.205 322.86C565.851 324.38 567.181 326.28 568.195 328.56C569.335 330.84 569.905 333.373 569.905 336.16V344.14C569.905 349.84 568.321 354.273 565.155 357.44C561.988 360.48 557.871 362 552.805 362H528.485ZM559.645 303.1C559.645 297.653 557.111 294.93 552.045 294.93H533.995V318.3H552.045C554.451 318.3 556.288 317.667 557.555 316.4C558.948 315.133 559.645 312.98 559.645 309.94V303.1ZM560.025 336.16C560.025 333.373 559.455 331.347 558.315 330.08C557.175 328.687 555.085 327.99 552.045 327.99H533.995V352.31H552.805C557.618 352.31 560.025 349.587 560.025 344.14V336.16ZM586.512 362C585.118 362 584.105 361.493 583.472 360.48C582.965 359.467 582.712 358.517 582.712 357.63V289.61C582.712 288.597 582.965 287.647 583.472 286.76C584.105 285.747 585.118 285.24 586.512 285.24H588.032C590.692 285.24 592.022 286.697 592.022 289.61V357.63C592.022 360.543 590.692 362 588.032 362H586.512ZM627.985 294.93V357.82C627.985 358.707 627.605 359.657 626.845 360.67C626.212 361.557 625.198 362 623.805 362H622.665C621.272 362 620.195 361.557 619.435 360.67C618.802 359.657 618.485 358.707 618.485 357.82V294.93H604.995C604.235 294.93 603.348 294.613 602.335 293.98C601.322 293.347 600.815 292.27 600.815 290.75V289.42C600.815 288.027 601.258 287.013 602.145 286.38C603.032 285.62 603.982 285.24 604.995 285.24H641.475C642.868 285.24 643.882 285.683 644.515 286.57C645.148 287.457 645.465 288.407 645.465 289.42V290.75C645.465 291.89 645.085 292.903 644.325 293.79C643.692 294.55 642.742 294.93 641.475 294.93H627.985ZM657.205 362C655.812 362 654.798 361.493 654.165 360.48C653.658 359.467 653.405 358.517 653.405 357.63V289.61C653.405 288.597 653.658 287.647 654.165 286.76C654.798 285.747 655.812 285.24 657.205 285.24H658.725C661.385 285.24 662.715 286.697 662.715 289.61V357.63C662.715 360.543 661.385 362 658.725 362H657.205ZM731.549 362C728.762 362 727.369 360.607 727.369 357.82V309.75L712.169 343.95C711.155 345.85 709.635 346.8 707.609 346.8H705.899C703.745 346.8 702.289 345.85 701.529 343.95L686.139 309.37V357.82C686.139 358.707 685.822 359.657 685.189 360.67C684.555 361.557 683.542 362 682.149 362H680.629C677.715 362 676.259 360.607 676.259 357.82V289.61C676.259 288.47 676.575 287.457 677.209 286.57C677.969 285.683 679.109 285.24 680.629 285.24H683.479C685.505 285.24 686.772 286.063 687.279 287.71L706.849 331.6L726.039 287.71C726.799 286.063 728.129 285.24 730.029 285.24H733.069C734.715 285.24 735.792 285.747 736.299 286.76C736.805 287.773 737.059 288.723 737.059 289.61V357.82C737.059 358.707 736.742 359.657 736.109 360.67C735.475 361.557 734.462 362 733.069 362H731.549ZM756.526 362C755.259 362 754.246 361.62 753.486 360.86C752.853 359.973 752.536 358.96 752.536 357.82V289.61C752.536 288.597 752.853 287.647 753.486 286.76C754.119 285.747 755.133 285.24 756.526 285.24H786.926C788.193 285.24 789.143 285.683 789.776 286.57C790.536 287.33 790.916 288.28 790.916 289.42V290.75C790.916 292.143 790.473 293.22 789.586 293.98C788.699 294.613 787.813 294.93 786.926 294.93H761.846V318.11H784.456C785.343 318.11 786.229 318.49 787.116 319.25C788.003 319.883 788.446 320.897 788.446 322.29V323.62C788.446 324.76 788.066 325.773 787.306 326.66C786.673 327.42 785.723 327.8 784.456 327.8H761.846V352.31H786.926C788.193 352.31 789.143 352.753 789.776 353.64C790.536 354.4 790.916 355.35 790.916 356.49V357.82C790.916 359.213 790.473 360.29 789.586 361.05C788.699 361.683 787.813 362 786.926 362H756.526ZM843.987 362C842.214 362 840.884 361.177 839.997 359.53L828.217 332.55H813.967V357.82C813.967 359.213 813.46 360.29 812.447 361.05C811.56 361.683 810.61 362 809.597 362H808.457C807.57 362 806.62 361.747 805.607 361.24C804.594 360.607 804.087 359.467 804.087 357.82V289.42C804.087 288.027 804.53 287.013 805.417 286.38C806.304 285.62 807.317 285.24 808.457 285.24H831.257C836.577 285.24 840.757 286.887 843.797 290.18C846.837 293.347 848.357 297.78 848.357 303.48V314.12C848.357 322.733 844.874 328.433 837.907 331.22L849.307 356.3C849.687 357.06 849.814 358.2 849.687 359.72C849.56 361.24 848.357 362 846.077 362H843.987ZM838.857 303.48C838.857 297.653 836.324 294.74 831.257 294.74H813.967V322.67H831.257C836.324 322.67 838.857 319.82 838.857 314.12V303.48Z" fill="white"/>
<path d="M824 279.375C826.486 279.375 828.871 278.387 830.629 276.629C832.387 274.871 833.375 272.486 833.375 270C833.375 267.514 832.387 265.129 830.629 263.371C828.871 261.613 826.486 260.625 824 260.625C821.514 260.625 819.129 261.613 817.371 263.371C815.613 265.129 814.625 267.514 814.625 270C814.625 272.486 815.613 274.871 817.371 276.629C819.129 278.387 821.514 279.375 824 279.375ZM824 281.25C822.523 281.25 821.06 280.959 819.695 280.394C818.33 279.828 817.09 279 816.045 277.955C815 276.91 814.172 275.67 813.606 274.305C813.041 272.94 812.75 271.477 812.75 270C812.75 268.523 813.041 267.06 813.606 265.695C814.172 264.33 815 263.09 816.045 262.045C817.09 261 818.33 260.172 819.695 259.606C821.06 259.041 822.523 258.75 824 258.75C826.984 258.75 829.845 259.935 831.955 262.045C834.065 264.155 835.25 267.016 835.25 270C835.25 272.984 834.065 275.845 831.955 277.955C829.845 280.065 826.984 281.25 824 281.25Z" fill="#3178C6"/>
<path d="M817.565 279.158L819.188 280.095L817.782 282.531C817.721 282.639 817.639 282.733 817.542 282.809C817.444 282.884 817.332 282.94 817.213 282.972C817.094 283.005 816.969 283.013 816.846 282.997C816.724 282.981 816.606 282.941 816.498 282.88C816.391 282.818 816.298 282.735 816.223 282.637C816.147 282.539 816.092 282.427 816.061 282.307C816.029 282.188 816.022 282.063 816.038 281.941C816.055 281.818 816.096 281.7 816.158 281.594L817.565 279.158ZM830.438 279.158L828.815 280.095L830.221 282.531C830.282 282.639 830.364 282.733 830.462 282.809C830.559 282.884 830.671 282.94 830.79 282.972C830.91 283.005 831.034 283.013 831.157 282.997C831.279 282.981 831.398 282.941 831.505 282.88C831.612 282.818 831.706 282.735 831.781 282.637C831.856 282.539 831.911 282.427 831.942 282.307C831.974 282.188 831.982 282.063 831.965 281.941C831.948 281.818 831.907 281.7 831.845 281.594L830.438 279.158ZM824.002 270H828.689C828.938 270 829.176 270.099 829.352 270.275C829.528 270.451 829.627 270.689 829.627 270.938C829.627 271.187 829.528 271.425 829.352 271.601C829.176 271.777 828.938 271.875 828.689 271.875H823.064C822.815 271.875 822.577 271.777 822.401 271.601C822.225 271.425 822.127 271.187 822.127 270.938V264.375C822.127 264.127 822.225 263.888 822.401 263.712C822.577 263.537 822.815 263.438 823.064 263.438C823.313 263.438 823.551 263.537 823.727 263.712C823.903 263.888 824.002 264.127 824.002 264.375V270ZM811.653 264.149C811.055 263.247 810.787 262.166 810.894 261.089C811.002 260.013 811.479 259.007 812.245 258.242C813.01 257.477 814.016 257 815.093 256.892C816.169 256.785 817.25 257.053 818.152 257.652L816.779 259.024C816.254 258.774 815.665 258.692 815.091 258.79C814.518 258.888 813.99 259.162 813.578 259.573C813.167 259.985 812.893 260.513 812.795 261.086C812.697 261.66 812.778 262.249 813.029 262.774L811.655 264.149H811.653ZM836.123 264.149C836.721 263.247 836.988 262.167 836.88 261.091C836.772 260.015 836.296 259.009 835.531 258.244C834.766 257.48 833.761 257.003 832.684 256.895C831.608 256.787 830.528 257.054 829.627 257.652L830.999 259.024C831.524 258.774 832.114 258.692 832.687 258.79C833.26 258.888 833.789 259.162 834.2 259.573C834.611 259.985 834.885 260.513 834.983 261.086C835.082 261.66 835 262.249 834.749 262.774L836.123 264.149Z" fill="#3178C6"/>
</svg>
