<svg width="500" height="500" viewBox="0 0 500 500" fill="none" xmlns="http://www.w3.org/2000/svg">
<path d="M288 254.8L335.3 260.2C335.3 260.2 414.3 360.6 409.3 390.7C404.3 420.8 292.7 407.6 292.7 407.6L269.5 332.6L288 254.8Z" fill="#6A40BF"/>
<path d="M225.102 211.7C225.102 211.7 211.602 203.6 193.202 217.7C174.802 231.8 143.602 277.8 143.602 277.8C143.602 277.8 162.102 306.9 180.902 302.5C180.902 302.5 239.402 235.3 225.102 211.7Z" fill="#662916"/>
<path d="M225.103 211.7C220.703 212.4 216.303 213.5 212.103 215C207.903 216.4 203.903 218.3 200.203 220.8C198.403 222 196.903 223.6 195.603 225.3C195.303 225.7 195.003 226.2 194.703 226.6L194.303 227.3L194.003 228C193.603 229 193.303 230 193.103 231.1C192.103 235.5 190.803 239.9 189.303 244.2C188.503 246.4 187.403 248.5 186.203 250.4C184.903 252.3 183.303 254.1 181.403 255.5C179.503 256.9 177.503 258 175.303 258.9C174.203 259.3 173.103 259.7 172.103 260C171.103 260.3 170.003 260.7 169.003 261.2C165.003 263 161.303 265.6 158.203 268.7C156.603 270.3 155.203 272 154.003 273.9C153.403 274.8 152.903 275.8 152.603 276.9C152.403 277.4 152.303 278 152.303 278.5C152.303 279.1 152.603 279.6 153.103 279.8C152.503 279.6 152.203 279.1 152.203 278.5C152.203 277.9 152.203 277.3 152.303 276.8C152.603 275.7 153.003 274.6 153.603 273.6C154.703 271.6 156.003 269.7 157.503 268C160.503 264.6 164.203 261.7 168.403 259.7C169.403 259.2 170.503 258.7 171.603 258.3C172.703 257.9 173.703 257.5 174.703 257.1C176.703 256.2 178.603 255.1 180.303 253.8C182.003 252.5 183.403 250.9 184.603 249.1C185.803 247.3 186.703 245.3 187.503 243.3C189.003 239.1 190.303 234.8 191.303 230.5C191.603 229.4 191.903 228.2 192.403 227.2L192.803 226.4L193.203 225.6C193.503 225.1 193.803 224.6 194.203 224.1C195.603 222.2 197.403 220.6 199.303 219.4C203.103 216.9 207.403 215.1 211.803 213.9C216.203 212.8 220.603 212 225.103 211.7Z" fill="#F2EBEB"/>
<path d="M211 235.6C209.4 236.9 208.1 238.4 206.9 240.2C205.8 241.9 204.8 243.7 204 245.6C203.6 246.5 203.2 247.5 202.9 248.4C202.6 249.3 202.2 250.3 202 251.3L201.6 252.8C201.5 253.3 201.3 253.8 201.1 254.3C200.7 255.3 200.3 256.3 199.8 257.2C197.8 260.9 195.3 264.3 192.4 267.3C189.5 270.3 186.3 273 182.8 275.3C181.9 275.9 181 276.4 180 276.9C179 277.4 178 277.8 176.9 278.1C176.2 278.3 175.6 278.3 174.9 278.1C174.5 278 174.1 277.7 173.8 277.4C173.5 277.1 173.4 276.7 173.3 276.3C173.2 275.7 173.2 275 173.4 274.4C173.5 273.8 173.7 273.3 173.9 272.8C174.3 271.6 175.2 270.7 176.2 270C177.3 269.3 178.7 269.2 179.9 269.7C181.1 270.2 182 271.1 182.5 272.3C182.9 273.4 183.1 274.6 182.9 275.8C182.5 277.9 181.5 279.9 180 281.6C178.7 283.3 177.3 284.8 175.6 286.1C174 287.4 172.2 288.6 170.4 289.5C168.6 290.4 166.6 291.1 164.5 291.5C168.4 290.3 172 288.2 174.9 285.4C176.4 284 177.7 282.5 178.8 280.9C180 279.4 180.8 277.6 181.2 275.7C181.3 274.8 181.2 273.9 180.9 273.1C180.6 272.4 180 271.8 179.2 271.5C178.5 271.2 177.7 271.3 177 271.7C176.3 272.2 175.8 272.8 175.5 273.6C175.4 273.8 175.3 274 175.3 274.2C175.2 274.4 175.2 274.6 175.1 274.9C175 275.3 175 275.7 175 276.1C175.1 276.4 175.1 276.4 175.3 276.5C175.6 276.6 176 276.6 176.3 276.5C178.2 276 179.9 275.1 181.5 274C184.9 271.8 188 269.2 190.8 266.3C193.7 263.5 196.2 260.3 198.2 256.8C198.7 255.9 199.1 255 199.5 254.1C199.7 253.6 199.8 253.2 200 252.7L200.5 251.2C201.2 249.2 202 247.3 202.9 245.4C203.8 243.5 204.9 241.8 206.2 240.1C207.7 238.3 209.3 236.8 211 235.6Z" fill="#F2EBEB"/>
<path d="M218.702 211.1C211.702 212.7 204.902 214.9 198.302 217.7C197.502 218 196.702 218.4 195.902 218.8L193.502 219.9L191.002 221C190.202 221.4 189.402 221.8 188.702 222.3C187.202 223.2 185.602 224 184.102 225.1L181.902 226.6L179.802 228.2C177.002 230.3 174.402 232.8 172.102 235.4C170.902 236.7 169.702 238.1 168.502 239.5L166.602 241.5C166.002 242.2 165.302 242.7 164.602 243.4C161.902 245.9 158.802 248 155.502 249.4C153.802 250.1 152.002 250.5 150.402 251.2C148.802 252.1 147.502 253.3 146.602 254.8C147.402 253.1 148.602 251.7 150.102 250.7C151.702 249.8 153.502 249.3 155.002 248.5C156.602 247.7 158.102 246.8 159.502 245.7L160.502 244.9C160.802 244.6 161.202 244.3 161.502 244C162.202 243.4 162.802 242.8 163.402 242.2C164.702 241 165.802 239.6 167.102 238.3C168.402 237 169.402 235.6 170.602 234.2C173.002 231.4 175.602 228.9 178.502 226.6C184.302 222.2 190.802 218.7 197.602 216.2C204.402 213.6 211.502 211.9 218.702 211.1Z" fill="#662916"/>
<path d="M187.402 302C190.602 300.5 193.602 298.6 196.202 296.2C198.802 293.9 200.702 291 201.702 287.7C201.802 287.3 201.902 286.9 202.002 286.5L202.102 285.2C202.202 284.4 202.202 283.4 202.302 282.5C202.502 280.7 202.902 278.9 203.402 277.1C204.502 273.6 206.202 270.3 208.402 267.3C209.502 265.8 210.702 264.5 211.902 263.1C213.102 261.7 214.402 260.5 215.302 259.1C217.302 256.2 219.102 253.2 220.602 250C222.202 246.8 223.402 243.5 224.302 240.1C224.802 238.4 225.002 236.7 224.902 234.9C224.802 234 224.502 233.2 224.002 232.5C223.502 231.8 222.702 231.3 221.802 231.1C222.702 231.2 223.602 231.6 224.202 232.3C224.802 233 225.202 233.9 225.302 234.8C225.602 236.6 225.502 238.5 225.202 240.2C224.502 243.7 223.402 247.2 221.902 250.5C220.502 253.8 218.802 257 216.702 260C215.602 261.6 214.302 262.8 213.202 264.1C212.102 265.4 210.902 266.8 209.902 268.2C207.802 270.9 206.202 274 205.102 277.3C204.602 278.9 204.202 280.6 204.002 282.3C203.902 283.2 203.902 284 203.702 284.9L203.502 286.3C203.402 286.8 203.302 287.2 203.102 287.7C202.602 289.5 201.702 291.2 200.502 292.6C199.402 294 198.102 295.4 196.702 296.5C194.102 299.1 190.902 300.8 187.402 302Z" fill="#6A40BF"/>
<path d="M227.203 205.2C228.503 207.3 229.603 209.6 230.403 212C231.203 214.4 231.803 216.8 232.103 219.4C232.403 221.9 232.403 224.5 231.903 227.1C231.503 229.6 230.403 232 228.803 234C229.703 231.7 230.203 229.4 230.403 226.9C230.403 226.3 230.403 225.7 230.503 225.1C230.603 224.5 230.503 223.9 230.503 223.3C230.503 222.7 230.403 222.1 230.403 221.5C230.403 220.9 230.303 220.3 230.203 219.7C229.903 217.3 229.503 214.9 229.003 212.5C228.403 210 227.903 207.6 227.203 205.2Z" fill="#6A40BF"/>
<path d="M175.7 332.2C198.8 250.8 243.5 230.1 288 254.8L286.2 351.6L330.9 364.6C330.9 364.6 378.1 377.4 391.1 389.2C391.1 389.2 372.5 399.5 348 424.7C323.5 449.9 302.6 482.6 241.5 480.1C180.4 477.6 157.3 396.9 175.7 332.2Z" fill="#6A40BF"/>
<path d="M335.402 260.1C335.402 260.1 363.502 228.9 391.202 250.9C418.902 272.9 478.502 366.1 463.802 419.9C449.102 473.7 381.502 476.7 325.902 447.9C325.902 447.9 363.902 395 391.202 389L335.402 260.1Z" fill="#6A40BF"/>
<path d="M251.903 405.5C242.603 403.3 223.303 399 219.703 403.5C216.103 408 210.803 423.1 205.903 415.1C201.003 407.1 205.903 398.2 205.903 398.2C205.903 398.2 201.903 413.8 196.503 409.3C191.103 404.8 192.103 390.2 192.103 390.2C192.103 390.2 191.203 402.2 186.703 401.3C182.203 400.4 177.803 386.6 186.703 371.9C186.703 371.9 168.903 379 171.603 373.2C174.303 367.4 197.403 352.7 210.403 348.7C210.403 348.7 232.003 340.1 301.303 373.2C301.303 373.2 284.203 380.5 271.003 391C256.103 403 251.903 405.5 251.903 405.5Z" fill="#188D05"/>
<path d="M203.702 361.7C200.502 363.4 197.502 365.2 194.502 367.1C193.002 368.1 191.602 369.1 190.302 370.2C189.002 371.2 187.802 372.4 186.702 373.7C184.802 376.4 184.002 379.9 183.302 383.3C182.702 386.8 182.402 390.3 182.202 393.9C181.602 390.3 181.402 386.7 181.802 383.1C182.002 381.3 182.302 379.5 182.802 377.7C183.302 375.9 184.102 374.1 185.102 372.6C186.302 371.1 187.602 369.8 189.202 368.7C190.702 367.6 192.202 366.6 193.802 365.8C196.902 364 200.202 362.6 203.702 361.7Z" fill="#000001"/>
<path d="M210.401 374.6C207.401 376.6 204.501 378.5 201.701 380.7C200.301 381.8 198.901 382.8 197.701 384C196.401 385.1 195.301 386.4 194.301 387.8C193.801 388.4 193.501 389.2 193.201 389.9C193.201 390.1 193.101 390.3 193.101 390.4L193.001 391C192.901 391.4 192.901 391.8 192.801 392.2C192.601 393.9 192.601 395.6 192.701 397.3C192.801 399 193.101 400.8 193.401 402.5C193.701 404.2 194.301 405.9 195.101 407.5C193.901 406.1 193.101 404.5 192.501 402.8C191.901 401.1 191.401 399.3 191.101 397.5C190.801 395.7 190.701 393.8 190.901 392C190.901 391.5 191.001 391.1 191.101 390.6L191.201 389.9C191.301 389.7 191.301 389.4 191.401 389.2C191.701 388.3 192.101 387.4 192.701 386.6C194.901 383.7 197.701 381.2 200.901 379.3C203.801 377.4 207.001 375.8 210.401 374.6Z" fill="#000001"/>
<path d="M220.002 385.9C217.302 387 214.702 388.4 212.302 390C210.002 391.6 207.902 393.7 207.202 396.2C206.502 399 205.902 401.9 205.602 404.8C205.402 406.3 205.302 407.7 205.202 409.2C205.102 409.9 205.102 410.7 205.102 411.4C205.102 412.1 205.102 412.9 205.302 413.6C204.902 412.9 204.702 412.2 204.602 411.5C204.502 410.7 204.402 410 204.302 409.3C204.202 407.8 204.102 406.3 204.202 404.8C204.302 401.8 204.702 398.7 205.402 395.8C205.902 394.2 206.702 392.8 207.902 391.6C209.002 390.5 210.202 389.5 211.602 388.8C214.102 387.2 217.002 386.3 220.002 385.9Z" fill="#000001"/>
<path d="M325.902 448C330.102 441.8 334.602 435.9 339.302 430.1C341.702 427.2 344.102 424.4 346.602 421.6C349.102 418.8 351.602 416.1 354.202 413.4C356.802 410.7 359.502 408.2 362.302 405.6C365.102 403 368.002 400.7 371.002 398.5C374.002 396.2 377.202 394.2 380.502 392.5C383.802 390.7 387.402 389.6 391.202 389.2C387.602 390 384.102 391.4 381.002 393.4C377.902 395.3 374.802 397.5 372.002 399.8C366.302 404.5 360.802 409.5 355.702 414.9C350.502 420.2 345.502 425.7 340.602 431.2C335.702 436.7 330.702 442.3 325.902 448Z" fill="#000001"/>
<path d="M331 364.6C331 364.6 379.9 352.8 404.4 382.7C404.4 382.7 394.1 389.9 386.8 385.9C379.5 381.9 331 364.6 331 364.6Z" fill="#188D05"/>
<path d="M237.703 418.6C243.903 411.9 250.603 405.6 257.603 399.8C264.703 394 272.103 388.6 279.803 383.7C283.703 381.3 287.703 379 291.703 376.9C295.703 374.8 299.903 372.9 304.203 371.2C308.503 369.5 312.803 368.1 317.303 366.9C321.803 365.8 326.303 365 330.903 364.6C326.403 365.4 322.003 366.5 317.703 367.8C313.403 369.2 309.103 370.8 304.903 372.6C296.603 376.3 288.603 380.5 280.903 385.4C277.003 387.8 273.303 390.3 269.503 392.9C265.703 395.5 262.103 398.2 258.503 401C251.503 406.6 244.403 412.4 237.703 418.6Z" fill="#000001"/>
<path d="M309.301 111.6C267.901 102.5 223.501 158.3 232.601 202.7C241.701 247.1 278.301 244.5 304.401 238.5C330.501 232.5 356.501 142.7 356.501 142.7C356.501 142.7 370.801 137.6 363.101 124.8C355.401 112 341.601 116.7 341.601 116.7C341.601 116.7 346.901 106.2 336.701 102.5C315.801 94.7 309.301 111.6 309.301 111.6Z" fill="#662916"/>
<path d="M312.703 179.3C312.703 179.3 312.703 155.7 298.203 167.4C283.703 179.1 309.103 194 307.803 198C305.003 206.3 286.403 251.8 286.703 264.1C286.703 265.5 314.503 294.3 332.203 295C337.003 295.2 337.603 286.7 335.403 260.2C334.403 247.8 339.203 250.4 357.603 238.6C383.303 222 375.003 193 375.003 193C375.003 193 402.203 181.6 402.103 177.1C402.003 172.6 378.903 156.9 367.803 146.9C356.703 136.9 336.303 126.3 336.303 126.3C336.303 126.3 338.403 138.6 330.003 142.8C330.003 142.8 331.603 156.4 322.603 158.1C322.603 158.1 324.803 171.2 316.603 170.4C316.603 170.3 317.103 178.9 312.703 179.3Z" fill="#188D05"/>
<path d="M336.5 202.3C336.5 202.3 339.6 198.4 343.6 200.7C347.6 203 341.1 213.2 334.6 211.6C328.1 210 336.5 202.3 336.5 202.3Z" fill="#CE5252"/>
<path d="M335.602 196.4C335.802 198 336.201 199.5 336.901 201C337.501 202.4 338.301 203.6 339.401 204.7C340.501 205.7 341.802 206.6 343.202 207.2C343.502 207.4 343.901 207.5 344.301 207.7L345.401 208.1C346.201 208.3 346.901 208.6 347.801 208.9C347.001 209 346.101 209.1 345.301 209.1C344.401 209 343.601 208.9 342.801 208.7C341.101 208.3 339.502 207.4 338.202 206.2C336.902 204.9 336.002 203.3 335.602 201.6C334.902 199.9 335.002 198.1 335.602 196.4Z" fill="#000001"/>
<path d="M336.301 157C337.001 155.4 338.201 154 339.701 153C341.201 152 342.901 151.3 344.601 151C346.401 150.7 348.301 150.9 350.001 151.5C351.701 152.1 353.201 153.3 354.101 154.8C352.301 154.7 350.801 154.5 349.301 154.6C347.901 154.6 346.501 154.7 345.201 155C343.801 155.2 342.401 155.5 341.001 155.9C339.601 156.3 338.101 156.6 336.301 157Z" fill="#662916"/>
<path d="M338.301 165.3C338.301 165.3 357.101 160.1 360.301 175.2C360.401 175.2 340.901 180.3 338.301 165.3Z" fill="#F2EBEB"/>
<path d="M337.5 165.2C339.7 164.3 342.1 163.7 344.5 163.6C346.9 163.4 349.4 163.7 351.8 164.4C354.2 165.1 356.4 166.5 358 168.5C359.6 170.4 360.4 172.8 360.4 175.3C359.7 173.1 358.5 171.1 356.9 169.5C356.1 168.7 355.2 168.1 354.3 167.6C353.4 167.1 352.3 166.6 351.3 166.3C350.2 166 349.1 165.7 348 165.5C346.9 165.3 345.7 165.2 344.6 165.1C342.2 165 339.8 165 337.5 165.2Z" fill="#000001"/>
<path d="M342.002 178.5C341.802 178.1 341.602 177.6 341.702 177.2C341.702 176.8 341.802 176.4 342.002 176.1C342.202 175.7 342.602 175.4 342.902 175.2C343.302 175 343.802 174.9 344.302 175.1C344.202 175.6 344.102 176 344.002 176.3C343.902 176.6 343.802 176.9 343.602 177.1C343.402 177.4 343.202 177.6 343.002 177.8C342.702 178.1 342.402 178.3 342.002 178.5Z" fill="#000001"/>
<path d="M337.202 176.6C337.002 176.2 336.802 175.7 336.902 175.3C336.902 174.9 337.102 174.5 337.302 174.2C337.502 173.8 337.802 173.5 338.202 173.3C338.602 173.1 339.102 173 339.602 173.2C339.502 173.7 339.402 174.1 339.302 174.4C339.202 174.7 339.102 175 338.902 175.2C338.702 175.5 338.502 175.7 338.302 175.9C338.002 176.2 337.602 176.5 337.202 176.6Z" fill="#000001"/>
<path d="M352.802 165.8C352.802 165.8 356.002 168.6 352.802 173.3C349.602 178 342.902 173.3 342.902 173.3C342.902 173.3 337.902 169.9 337.902 165.1C337.902 164.3 348.202 163.4 352.802 165.8Z" fill="#000001"/>
<path d="M331.803 126.2C329.903 131.9 327.103 137.3 323.603 142.2C322.703 143.4 321.603 144.6 320.503 145.6C319.303 146.7 318.003 147.6 316.503 148.2C314.903 148.9 313.203 149 311.503 148.6C310.703 148.4 309.903 148 309.203 147.6C308.503 147.2 307.803 146.8 307.203 146.4C306.503 145.9 305.903 145.4 305.403 144.8C304.803 144.1 304.303 143.3 304.103 142.4C303.803 141.4 304.103 140.3 304.703 139.5C305.403 138.6 306.403 138.1 307.503 138.2C308.203 138.3 308.803 138.7 309.103 139.4C309.203 139.9 309.303 140.4 309.303 140.9C309.303 141.7 309.203 142.5 309.103 143.3C308.903 144.8 308.503 146.3 307.903 147.8C307.303 149.3 306.503 150.6 305.503 151.8C304.503 153 303.203 154 301.703 154.5C300.203 155 298.703 155.3 297.103 155.1C295.603 155 294.103 154.6 292.703 154.1C294.103 154.4 295.603 154.6 297.103 154.6C298.503 154.6 300.003 154.2 301.303 153.6C303.803 152.2 305.603 149.9 306.403 147.2C306.903 145.8 307.203 144.4 307.303 143C307.403 142.3 307.403 141.6 307.403 140.9C307.403 140.7 307.403 140.4 307.303 140.2C307.303 140.1 307.303 140.2 307.203 140.2C306.803 140.2 306.403 140.4 306.103 140.8C305.803 141.2 305.703 141.7 305.903 142.1C306.403 143.3 307.203 144.3 308.303 144.9C309.403 145.7 310.603 146.4 311.903 146.8C313.203 147.1 314.503 147 315.703 146.5C318.203 145.5 320.303 143.4 322.203 141.2C324.103 138.9 325.803 136.5 327.303 134C329.003 131.5 330.403 128.8 331.803 126.2Z" fill="#F2EBEB"/>
<path d="M250.602 161.1C254.202 159.5 257.602 157.5 260.802 155.2C263.902 152.9 266.702 150.2 269.102 147.1C269.702 146.3 270.102 145.5 270.702 144.7C271.302 143.9 271.602 143 272.002 142.2C272.402 141.4 272.702 140.4 273.002 139.5C273.302 138.6 273.502 137.6 273.702 136.7C273.902 135.8 274.002 134.9 274.002 134C274.002 133.6 274.002 133.2 273.902 132.8C273.802 132.5 273.702 132.3 273.602 132.3C273.402 132.3 273.102 132.3 273.002 132.4C272.702 132.6 272.402 132.8 272.102 133.1C271.502 133.6 271.202 134.3 271.002 135.1C271.002 135.4 271.002 135.6 271.202 135.8L271.302 135.9L271.502 136.1C271.702 136.2 271.802 136.4 272.002 136.5C272.702 137 273.502 137.4 274.302 137.6C276.002 138.1 277.702 137.8 279.202 136.8C280.702 135.8 282.002 134.4 282.902 132.8C283.402 132 283.902 131.2 284.302 130.3C284.702 129.4 285.102 128.5 285.502 127.6C287.002 123.8 289.502 120.5 292.702 118C294.302 116.8 296.002 115.8 297.902 115C299.702 114.2 301.702 113.8 303.702 113.6C299.902 114.4 296.302 116.1 293.302 118.7C291.802 120 290.602 121.4 289.502 123C288.402 124.6 287.602 126.3 286.902 128.1C286.502 129 286.202 130 285.802 130.9C285.402 131.8 284.902 132.7 284.402 133.6C283.402 135.5 281.902 137.1 280.202 138.3C278.302 139.6 276.002 140 273.802 139.4C272.702 139.1 271.702 138.6 270.802 138C270.602 137.8 270.402 137.7 270.202 137.5C270.102 137.4 270.002 137.3 269.902 137.2C269.802 137.1 269.702 136.9 269.502 136.8C269.102 136.2 268.902 135.4 269.002 134.7C269.202 133.5 269.802 132.4 270.702 131.5C271.102 131.1 271.602 130.8 272.202 130.5C272.902 130.1 273.702 130.1 274.402 130.3C275.102 130.6 275.702 131.3 275.902 132.1C276.002 132.7 276.102 133.3 276.102 133.8C276.102 134.9 275.902 135.9 275.702 136.9C275.502 137.9 275.202 138.9 274.902 139.8C274.602 140.7 274.202 141.7 273.802 142.7C273.402 143.7 272.902 144.5 272.302 145.4C271.702 146.3 271.202 147.1 270.502 147.9C268.002 151 264.902 153.7 261.502 155.9C259.802 157 258.102 157.9 256.302 158.8C254.302 159.9 252.502 160.6 250.602 161.1Z" fill="#F2EBEB"/>
<path d="M335.402 124.8C336.802 126.1 337.902 127.6 338.702 129.4C339.502 131.1 340.002 133 340.202 134.9C340.402 136.9 340.002 138.8 339.202 140.6C339.002 141 338.802 141.5 338.502 141.9L337.602 143C337.302 143.4 337.002 143.7 336.602 144C336.202 144.3 335.902 144.6 335.502 144.9C336.502 143.4 337.202 141.8 337.702 140.1C338.202 138.5 338.302 136.8 338.202 135C338.002 133.3 337.702 131.5 337.202 129.9C336.702 128.1 336.102 126.4 335.402 124.8Z" fill="#662916"/>
<path d="M298.9 208.4C298.1 211 297 213.5 295.7 215.9C294.4 218.3 293 220.7 290.5 222.5C289.8 223 289.1 223.3 288.3 223.3C287.4 223.4 286.6 223.2 285.8 222.7C285.5 222.5 285.2 222.3 284.9 222L284.1 221.3L282.6 219.9C280.6 218.1 278.6 216.4 276.2 216.2C275 216.1 273.8 216.3 272.7 216.8C271.5 217.3 270.4 217.9 269.3 218.7C268.2 219.4 267.2 220.3 266.2 221.1C265.1 222.1 263.9 222.8 262.6 223.4C262.2 223.5 261.9 223.7 261.5 223.8C261.1 223.9 260.7 223.9 260.3 223.9C259.5 223.9 258.7 223.6 258 223.1C256.9 222.1 256.1 220.8 255.8 219.3C255.5 218 255.2 216.6 255.2 215.2C255.1 213.8 255.1 212.5 255.2 211.1C255.3 213.8 255.9 216.4 256.7 219C257.1 220.2 257.8 221.2 258.8 222C259.8 222.6 261 222.6 262 222C263.1 221.4 264.1 220.7 265.1 219.8C266.1 218.9 267.2 218 268.3 217.2C269.4 216.3 270.7 215.6 272 215.1C274.8 213.8 278.1 214.1 280.6 216C281.8 216.8 282.8 217.7 283.8 218.7L285.3 220.1C285.7 220.5 286.2 221 286.7 221.3C287.6 221.9 288.8 221.9 289.6 221.2C290.7 220.5 291.6 219.7 292.4 218.7C293.3 217.7 294 216.6 294.8 215.5C296.4 213.2 297.7 210.8 298.9 208.4Z" fill="#F2EBEB"/>
<path d="M289.803 170.3C285.103 171.1 280.503 172.6 276.103 174.5C271.903 176.5 268.003 179.6 267.603 184.2C267.103 186.8 265.903 189.2 264.003 191C262.103 192.7 259.903 194 257.403 194.7C255.003 195.4 252.503 195.7 250.003 195.6C247.503 195.5 245.103 194.7 243.203 193.2C245.303 194.3 247.703 194.8 250.103 194.7C252.403 194.6 254.803 194.2 256.903 193.3C259.103 192.5 261.003 191.3 262.703 189.7C264.303 188.1 265.303 186.1 265.703 183.9C265.803 183.4 265.903 182.7 266.103 182C266.203 181.7 266.303 181.4 266.403 181.1L266.803 180.2C267.403 179 268.203 178 269.203 177.1C271.103 175.4 273.203 174 275.603 173.1C280.103 171.3 284.903 170.3 289.803 170.3Z" fill="#F2EBEB"/>
<path d="M197.998 67.2C197.998 67.2 183.398 105.7 128.498 107C128.498 107 153.298 142.1 135.498 185.2L53.3984 143.6C53.3984 143.6 67.0984 109.4 121.798 103.4C121.798 103.4 94.0984 75 116.998 26.1L197.998 67.2Z" fill="#F2EBEB"/>
<path d="M204.099 63.2C204.099 63.2 116.499 19.3 115.499 20.9C114.499 22.5 111.399 24.4 112.899 25.9C114.399 27.4 196.099 67.6 199.799 68.1C203.499 68.6 204.099 63.2 204.099 63.2Z" fill="#6A40BF"/>
<path d="M124.198 101C115.498 88.2 110.398 72 110.398 72C120.398 77.6 137.898 79.6 153.198 78.7C162.198 78.2 170.998 81.6 177.398 88C159.598 105.7 127.698 103.6 127.698 103.6C127.698 103.6 125.098 103.9 124.898 108C124.698 112.1 125.098 114.3 123.998 114.5C122.898 114.7 121.798 111.3 121.998 107.3C122.098 105 122.798 102.8 124.198 101Z" fill="#6A40BF"/>
<path d="M141.3 183.7C141.3 183.7 53.7004 139.8 52.7004 141.4C51.7004 143 48.6004 145 50.2004 146.4C51.8004 147.8 133.4 188.1 137.1 188.6C140.8 189.1 141.3 183.7 141.3 183.7Z" fill="#6A40BF"/>
<path d="M127.001 120.7C127.001 120.7 136.101 138.7 135.201 157.7C134.301 176.7 132.701 179.4 131.501 178.8C130.301 178.2 105.501 168.9 106.101 166.4C106.701 163.9 119.901 161.4 122.801 151.1C125.701 140.8 120.101 114.6 127.001 120.7Z" fill="#6A40BF"/>
<path d="M136.898 157.3C136.498 153.6 136.198 149.9 135.698 146.3C135.498 144.5 135.198 142.7 134.998 140.9L134.598 138.2L134.098 135.5C133.998 134.6 133.698 133.7 133.598 132.8C133.498 131.9 133.198 131 132.998 130.1C132.798 129.2 132.598 128.3 132.298 127.4C132.098 126.5 131.798 125.7 131.498 124.8C130.398 121.3 128.898 118 127.098 114.8C129.598 117.6 131.598 120.8 132.898 124.3C134.298 127.8 135.298 131.4 135.998 135C136.698 138.7 137.098 142.4 137.298 146.1C137.498 149.9 137.298 153.6 136.898 157.3Z" fill="#F2EBEB"/>
<path d="M166.899 91.4C165.599 92.8 164.199 93.9 162.499 94.8C160.899 95.7 159.199 96.5 157.499 97.1C155.799 97.7 153.999 98.2 152.199 98.6C150.399 99 148.599 99.2 146.699 99.2C147.499 98.8 148.399 98.4 149.199 98.1C149.999 97.8 150.899 97.4 151.699 97.1L156.699 95.2L161.699 93.3C163.499 92.7 165.199 92.1 166.899 91.4Z" fill="#F2EBEB"/>
<path d="M130.198 178.1C124.098 175.5 117.998 172.9 111.998 170.1C105.998 167.3 99.9977 164.5 93.9977 161.6C87.9977 158.7 82.0977 155.7 76.1977 152.7C73.2977 151.2 70.2977 149.7 67.3977 148.1L58.5977 143.4C64.7977 145.8 70.8977 148.5 76.8977 151.2C82.8977 153.9 88.8977 156.8 94.8977 159.7C100.898 162.6 106.798 165.6 112.698 168.6C118.598 171.6 124.398 174.9 130.198 178.1Z" fill="#000001"/>
<path d="M197.998 67.2C191.098 64.3 184.198 61.3 177.398 58.2C170.598 55.1 163.798 51.9 157.098 48.7C150.398 45.5 143.598 42.2 136.998 38.8C130.398 35.4 123.598 31.9 117.098 28.3C123.998 31.2 130.898 34.2 137.698 37.3C144.498 40.4 151.298 43.6 157.998 46.8C164.698 50 171.498 53.4 178.098 56.8C184.698 60.2 191.398 63.6 197.998 67.2Z" fill="#000001"/>
<path d="M196.598 46C199.298 46.1 201.898 46.9 203.998 48.5C206.198 50.1 208.098 52.1 209.398 54.5C210.698 56.8 211.498 59.4 211.898 62C212.098 63.3 212.098 64.6 212.198 65.9C212.298 67.2 212.098 68.5 211.898 69.8C211.598 68.5 211.398 67.3 211.198 66L210.298 62.3C210.098 61.7 209.898 61.1 209.698 60.5L209.398 59.6L208.998 58.7L208.298 56.9L207.398 55.3C206.198 53.2 204.698 51.2 202.898 49.6C201.198 48 198.998 46.8 196.598 46Z" fill="#6A40BF"/>
<path d="M214.699 55.9C215.899 57 216.999 58.3 217.699 59.8C218.499 61.3 218.999 62.8 219.299 64.5C219.599 66.1 219.699 67.8 219.499 69.4C219.299 71 218.899 72.6 218.199 74.1C218.099 72.4 218.099 70.9 217.999 69.4C217.899 67.9 217.699 66.4 217.399 64.9C216.699 61.8 215.799 58.8 214.699 55.9Z" fill="#6A40BF"/>
<path d="M44.1969 116.6C43.3969 119.7 42.6969 122.7 42.1969 125.8C41.6969 128.8 41.3969 131.9 41.3969 135C41.3969 138 41.7969 141.1 42.5969 144C42.9969 145.5 43.5969 146.9 44.2969 148.2C45.0969 149.6 45.8969 150.9 46.8969 152.1C45.5969 151.2 44.3969 150 43.3969 148.8C42.3969 147.5 41.5969 146.1 40.9969 144.6C39.8969 141.6 39.2969 138.3 39.2969 135.1C39.2969 131.9 39.6969 128.7 40.5969 125.6C41.4969 122.4 42.6969 119.4 44.1969 116.6Z" fill="#6A40BF"/>
<path d="M34.8988 147.3C35.8988 149.7 37.1988 151.9 38.8988 153.9C39.6988 154.9 40.5988 155.8 41.4988 156.7C41.9988 157.2 42.4988 157.6 42.9988 158C43.4988 158.4 43.9988 158.8 44.4988 159.4C43.7988 159.3 43.1988 159.1 42.4988 158.9C41.7988 158.7 41.1988 158.4 40.5988 158C39.3988 157.3 38.2988 156.4 37.3988 155.3C36.4988 154.2 35.7988 152.9 35.2988 151.6C34.8988 150.1 34.6988 148.7 34.8988 147.3Z" fill="#6A40BF"/>
</svg>
